<svg xmlns="http://www.w3.org/2000/svg" viewBox="0 0 634.16 660"><defs><style>.cls-1{isolation:isolate;}.cls-2{fill:#232d14;}.cls-3{fill:#d9bc73;}.cls-4{mix-blend-mode:multiply;}</style></defs><g class="cls-1"><g id="Layer_2" data-name="Layer 2"><path class="cls-2" d="M221.09,262.55s38.07-1.42,37.34-38c-.56-28-16.2-25.68-16.2-25.68l-149.51-.16s-66.93-7.29-66.87-77.31l.06-68.18a33.42,33.42,0,0,1,24.33,23.4l0,46.76s3.51,35.72,40.16,38.35,34.36,0,34.36,0-16.56-8.46-17.12-46.12S107.84,15,107.84,15s23.34,6.52,25.07,26.66,0,76.5,0,76.5,7.14,43.24,43.2,46.67l59.77.07s33.18-2.77,40.19-42.37-9.7-54.76,26.84-71.61l-.06,68.83s-2.38,41.56-29.73,52.56c0,0,54,69.55-21,114.49Z"/><path class="cls-2" d="M414.14,262.55s-38.07-1.42-37.34-38c.56-28,16.2-25.68,16.2-25.68l149.51-.16s66.93-7.29,66.87-77.31l-.06-68.18A33.4,33.4,0,0,0,585,76.65l0,46.76s-3.51,35.72-40.16,38.35-34.36,0-34.36,0,16.56-8.46,17.12-46.12S527.39,15,527.39,15s-23.34,6.52-25.07,26.66,0,76.5,0,76.5-7.14,43.24-43.2,46.67l-59.77.07s-33.18-2.77-40.19-42.37,9.7-54.76-26.84-71.61l.06,68.83s2.38,41.56,29.73,52.56c0,0-54,69.55,21,114.49Z"/><path class="cls-2" d="M358.12,387.27c-.2,1.31-.4,2.62-.63,3.93-2.23,12.57-7.28,24.37-9.31,36.94a32.24,32.24,0,1,1-61.65-.63,36.37,36.37,0,0,1,.65-14.17,24.74,24.74,0,0,1,.38-5.13c1.67-8.85,3.13-17.73,4.67-26.59-.18-1.3-.37-2.61-.56-3.9A64.89,64.89,0,0,0,253,437.16C253,472.9,281.79,502,317.24,502s64.3-29.07,64.3-64.81A64.72,64.72,0,0,0,358.12,387.27Z"/><path class="cls-2" d="M357,428.36A171.62,171.62,0,0,1,377.18,414a109.59,109.59,0,0,1-6.89-38.26c0-60.31,48.68-109.38,108.51-109.38,24.44,0,44.72,7.42,62.88,21.22l25.11-22.24a139.22,139.22,0,0,0-88-31.31c-77.51,0-140.57,63.57-140.57,141.71a141.53,141.53,0,0,0,12,57.12C352.52,431.38,354.77,429.89,357,428.36Z"/><path class="cls-2" d="M278.24,428.36A172.56,172.56,0,0,0,258.05,414a109.59,109.59,0,0,0,6.89-38.26c0-60.31-48.68-109.38-108.51-109.38a107.39,107.39,0,0,0-65.16,22l-22.82-23a139.17,139.17,0,0,1,88-31.31C234,234,297,297.59,297,375.73a141.54,141.54,0,0,1-12,57.12C282.71,431.38,280.46,429.89,278.24,428.36Z"/><path class="cls-2" d="M538.86,247.89a107.61,107.61,0,0,1-131.47,23.22,122.91,122.91,0,0,1-18.92,26.33,139.34,139.34,0,0,0,177.15-31.35Z"/><path class="cls-2" d="M95.2,247.89a107.61,107.61,0,0,0,131.47,23.22,123.26,123.26,0,0,0,18.92,26.33A139.33,139.33,0,0,1,68.45,266.09Z"/><path class="cls-3" d="M389.18,191.27l149.52-.17s66.92-7.29,66.86-77.3l-.06-68.19A33.4,33.4,0,0,0,581.18,69l0,46.75s-3.51,35.72-40.16,38.35-34.35,0-34.35,0,16.56-8.47,17.11-46.13-.24-100.65-.24-100.65S500.23,13.91,498.5,34s0,76.51,0,76.51-7.15,43.24-43.21,46.67l-59.77.06s-33.18-2.76-40.19-42.37,9.71-54.76-26.83-71.61l.05,68.83s2.38,41.56,29.73,52.57c0,0-49.5,63.8,12.22,108.67a141.85,141.85,0,0,0-26.12,146.88,2.21,2.21,0,0,0-.05.25,32.26,32.26,0,1,1-63.16,9,31,31,0,0,1,.58-5.82,141.87,141.87,0,0,0-24.72-150.33c61.72-44.87,12.22-108.67,12.22-108.67,27.36-11,29.73-52.57,29.73-52.57l.06-68.83c-36.54,16.85-19.82,32-26.84,71.61S232,157.28,232,157.28l-59.76-.06c-36.07-3.43-43.21-46.67-43.21-46.67s1.75-56.38,0-76.51S104,7.39,104,7.39s-.79,63-.24,100.65,17.11,46.13,17.11,46.13,2.3,2.59-34.36,0-40.16-38.35-40.16-38.35l0-46.75A33.41,33.41,0,0,0,22.09,45.61L22,113.8c-.06,70,66.87,77.3,66.87,77.3l149.51.17S254.05,189,254.61,217c.42,20.82-11.76,30.23-22.32,34.48A139.07,139.07,0,0,0,91.61,240.5a2.61,2.61,0,0,0-.23-.24l-1.82,1.24a140.91,140.91,0,0,0-24.93,16.19l.45.45-.45.31a142.21,142.21,0,0,0,20.85,20.26l2,2,.33-.24a139,139,0,0,0,145.06,14.07,109.62,109.62,0,0,1,23.65,105,64.66,64.66,0,0,0-7.36,30c0,35.74,28.84,64.82,64.29,64.82s64.3-29.08,64.3-64.82a64.67,64.67,0,0,0-4.94-24.86A109.58,109.58,0,0,1,394.4,294.93a139.19,139.19,0,0,0,166.32-35.25l2.25-2a139.27,139.27,0,0,0-167.67-6.26C384.75,247.18,372.57,237.77,373,217,373.54,189,389.18,191.27,389.18,191.27Zm-238,83.09a107.18,107.18,0,0,1-30.25-10.88,107.51,107.51,0,0,1,82.62,8.07A106.71,106.71,0,0,1,151.19,274.36Zm354.68-11.08a107,107,0,0,1-82.28,8.5A107.2,107.2,0,0,1,475,258.71,103.69,103.69,0,0,1,505.87,263.28Z"/><g class="cls-4"><path d="M85.27,616.17a21.14,21.14,0,0,1-9.55-2,14.31,14.31,0,0,1-6.14-5.68,17,17,0,0,1-2.16-8.76,16.8,16.8,0,0,1,1.08-6.06,17.82,17.82,0,0,1,3.24-5.31,25.27,25.27,0,0,1,5.47-4.9A48,48,0,0,1,85.72,579a124.59,124.59,0,0,1,12.49-4.27c-.27-.94-.55-2-.83-3.2s-.55-2.53-.83-4q-1.15-6.06-4.06-9a10.46,10.46,0,0,0-7.72-2.9A24.22,24.22,0,0,0,78,556.78a39.17,39.17,0,0,0-7.13,2.86l-3.41-6.8A31.65,31.65,0,0,1,76,549.35,37.86,37.86,0,0,1,85.68,548q8,0,12.7,4.24T104.44,565a48.74,48.74,0,0,0,1.87,7.84,20.89,20.89,0,0,0,2.69,5.48,16,16,0,0,0,3.82,3.78l-5.06,6.55a39.53,39.53,0,0,1-3.78-3.44,18.62,18.62,0,0,1-2.78-3.78c-2.82.78-5.37,1.55-7.64,2.33s-4.26,1.53-6,2.28a24.14,24.14,0,0,0-4.32,2.36,16.31,16.31,0,0,0-5.1,4.78,10.43,10.43,0,0,0-1.7,5.85q0,4.65,2.94,7t8.68,2.41a44,44,0,0,0,5.35-.37c2-.25,4.3-.63,6.85-1.12l1.08,6.8q-3.5.92-6.27,1.37c-1.85.31-3.57.54-5.15.71A46.32,46.32,0,0,1,85.27,616.17Zm-.75-74.95a4.76,4.76,0,0,1-3.65-1.41,6.46,6.46,0,0,1,0-7.85,4.85,4.85,0,0,1,3.65-1.37A4.64,4.64,0,0,1,88.13,532a6.48,6.48,0,0,1,0,7.76A4.57,4.57,0,0,1,84.52,541.22Z"/><path d="M139.46,589.36q-7.31,0-11.57-4.36c-2.86-2.91-4.28-6.87-4.28-11.91a35.1,35.1,0,0,1,.29-4.23,37.16,37.16,0,0,1,.83-4.49c.36-1.43.73-2.71,1.12-3.81H134q-.59,2.82-.92,5.72a51.57,51.57,0,0,0-.33,5.81,10.74,10.74,0,0,0,2.16,7,6.92,6.92,0,0,0,5.64,2.65h28.8V548.85h8.88v40.51Zm14.11,18A4.68,4.68,0,0,1,150,606a5.48,5.48,0,0,1-1.32-3.9,5.56,5.56,0,0,1,1.28-3.95,5.49,5.49,0,0,1,7.31,0,5.61,5.61,0,0,1,1.28,3.9,5.53,5.53,0,0,1-1.32,3.86A4.75,4.75,0,0,1,153.57,607.37Z"/><path d="M192.67,609.28a20.08,20.08,0,0,1-5.32-.71,22.71,22.71,0,0,1-5.39-2.36l3.07-6.39a16.26,16.26,0,0,0,3.53,1.41,14.4,14.4,0,0,0,3.19.33,6.7,6.7,0,0,0,5.73-2.86,12.56,12.56,0,0,0,2.08-7.52V548.85h8.79V591.1a23.2,23.2,0,0,1-1.86,9.71,14.2,14.2,0,0,1-5.4,6.27A15.65,15.65,0,0,1,192.67,609.28Zm10.79-68.06a4.8,4.8,0,0,1-3.66-1.41,6.5,6.5,0,0,1,0-7.85,4.89,4.89,0,0,1,3.66-1.37,4.64,4.64,0,0,1,3.61,1.41,6.52,6.52,0,0,1,0,7.76A4.57,4.57,0,0,1,203.46,541.22Z"/><path d="M251.93,526.28H261v63.08h-9.05Z"/><path d="M293.34,609.28a18.32,18.32,0,0,1-10-2.66,17.07,17.07,0,0,1-6.43-7.59,28.11,28.11,0,0,1-2.24-11.66,58,58,0,0,1,.41-6.77,50.39,50.39,0,0,1,1.25-6.6,39.93,39.93,0,0,1,2-5.81h8.3a42.84,42.84,0,0,0-2.12,8.72,73.44,73.44,0,0,0-.7,10.46q0,6.72,2.86,10.5a9.49,9.49,0,0,0,8,3.77h3.49q7,0,10.21-3.32t3.23-9.88V526.28h8.88V588.2q0,10.45-5.35,15.77t-16.64,5.31Z"/><path d="M415.69,589.36A17.16,17.16,0,0,1,408.8,588a21.47,21.47,0,0,1-6.39-4.53,14.76,14.76,0,0,1-5.23,4.32,16.58,16.58,0,0,1-7.47,1.58h-9.8q-.24,9.87-5.6,14.9t-16.31,5h-5.15a18.32,18.32,0,0,1-10-2.66,17.07,17.07,0,0,1-6.43-7.59,28.11,28.11,0,0,1-2.24-11.66,55.36,55.36,0,0,1,.95-10.09,42.31,42.31,0,0,1,2.7-9.09h8.3a42.21,42.21,0,0,0-2.11,8.72,72,72,0,0,0-.71,10.46q0,6.72,2.86,10.5a9.49,9.49,0,0,0,8,3.77h3.49q7,0,10.21-3.32t3.23-9.88V555.33H380v26.39h8.3a7.59,7.59,0,0,0,6.18-2.53,10.76,10.76,0,0,0,2.12-7.1V555.33h8.79v19.38a5.92,5.92,0,0,1-.08,1,12.69,12.69,0,0,0,4.4,4.68,12,12,0,0,0,5.89,1.29h5.07V548.85h8.79v40.51Z"/><path d="M458.1,616.17a21.14,21.14,0,0,1-9.55-2,14.37,14.37,0,0,1-6.14-5.68,17,17,0,0,1-2.16-8.76,16.8,16.8,0,0,1,1.08-6.06,17.82,17.82,0,0,1,3.24-5.31,25.33,25.33,0,0,1,5.48-4.9,47.53,47.53,0,0,1,8.5-4.44,124.87,124.87,0,0,1,12.5-4.27c-.28-.94-.56-2-.83-3.2s-.56-2.53-.83-4q-1.17-6.06-4.07-9a10.46,10.46,0,0,0-7.72-2.9,24.1,24.1,0,0,0-6.72,1.12,39,39,0,0,0-7.14,2.86l-3.4-6.8a31.44,31.44,0,0,1,8.46-3.49,37.86,37.86,0,0,1,9.71-1.33q8,0,12.7,4.24T477.27,565a48.74,48.74,0,0,0,1.87,7.84,20.59,20.59,0,0,0,2.7,5.48,15.9,15.9,0,0,0,3.81,3.78l-5.06,6.55a39.53,39.53,0,0,1-3.78-3.44,19,19,0,0,1-2.78-3.78c-2.82.78-5.36,1.55-7.63,2.33s-4.26,1.53-6,2.28a24,24,0,0,0-4.31,2.36,16.35,16.35,0,0,0-5.11,4.78,10.51,10.51,0,0,0-1.7,5.85q0,4.65,2.95,7t8.67,2.41a44,44,0,0,0,5.35-.37c2-.25,4.31-.63,6.85-1.12l1.08,6.8q-3.48.92-6.27,1.37c-1.85.31-3.57.54-5.14.71A46.51,46.51,0,0,1,458.1,616.17Zm4.56-13.2a4.78,4.78,0,0,1-3.65-1.41,6.46,6.46,0,0,1,0-7.85,4.86,4.86,0,0,1,3.65-1.36,4.61,4.61,0,0,1,3.61,1.41,6.48,6.48,0,0,1,0,7.76A4.6,4.6,0,0,1,462.66,603Z"/><path d="M516.86,609.28a22.59,22.59,0,0,1-8.42-1.5,17.6,17.6,0,0,1-6.44-4.31,19.67,19.67,0,0,1-4.1-6.68,24.23,24.23,0,0,1-1.46-8.59,51.56,51.56,0,0,1,1-10,49.48,49.48,0,0,1,2.7-9.17h8.3a49.9,49.9,0,0,0-2.12,9,68,68,0,0,0-.71,9.87q0,6.55,3.49,10.17t10,3.61H535q8.13,0,11.7-2.86t3.57-8.92v-.5H543a22.23,22.23,0,0,1-10.42-2.28,15.38,15.38,0,0,1-6.64-6.69,22.62,22.62,0,0,1-2.28-10.54,21.4,21.4,0,0,1,2.9-11.37,18.54,18.54,0,0,1,8.14-7.18,28.5,28.5,0,0,1,12.2-2.45h12.2v40.09q0,10.21-5.4,15.27t-16.43,5.07Zm33.37-27.56V556.49h-3.07a17.4,17.4,0,0,0-7.76,1.58,11.08,11.08,0,0,0-4.9,4.6,14.74,14.74,0,0,0-1.7,7.35,15.07,15.07,0,0,0,1.28,6.6,8.21,8.21,0,0,0,3.86,3.86,14.43,14.43,0,0,0,6.31,1.24Zm-12.29-40.5a5,5,0,0,1-3.57-1.33,6.39,6.39,0,0,1,0-8,5.1,5.1,0,0,1,3.57-1.29,4.74,4.74,0,0,1,3.57,1.37,6.46,6.46,0,0,1,0,7.85A4.65,4.65,0,0,1,537.94,541.22Zm14.28,0a4.76,4.76,0,0,1-3.65-1.41,6.46,6.46,0,0,1,0-7.85,4.85,4.85,0,0,1,3.65-1.37,4.64,4.64,0,0,1,3.61,1.41,6.48,6.48,0,0,1,0,7.76A4.57,4.57,0,0,1,552.22,541.22Z"/></g><path class="cls-3" d="M78.27,613.17a21.14,21.14,0,0,1-9.55-2,14.31,14.31,0,0,1-6.14-5.68,17,17,0,0,1-2.16-8.76,16.8,16.8,0,0,1,1.08-6.06,17.82,17.82,0,0,1,3.24-5.31,25.27,25.27,0,0,1,5.47-4.9A48,48,0,0,1,78.72,576a124.59,124.59,0,0,1,12.49-4.27c-.27-.94-.55-2-.83-3.2s-.55-2.53-.83-4q-1.15-6.06-4.06-9a10.46,10.46,0,0,0-7.72-2.9A24.22,24.22,0,0,0,71,553.78a39.17,39.17,0,0,0-7.13,2.86l-3.41-6.8A31.65,31.65,0,0,1,69,546.35,37.86,37.86,0,0,1,78.68,545q8,0,12.7,4.24T97.44,562a48.74,48.74,0,0,0,1.87,7.84,20.89,20.89,0,0,0,2.69,5.48,16,16,0,0,0,3.82,3.78l-5.06,6.55A39.53,39.53,0,0,1,97,582.25a18.62,18.62,0,0,1-2.78-3.78c-2.82.78-5.37,1.55-7.64,2.33s-4.26,1.53-6,2.28a24.14,24.14,0,0,0-4.32,2.36,16.31,16.31,0,0,0-5.1,4.78,10.43,10.43,0,0,0-1.7,5.85q0,4.65,2.94,7t8.68,2.41a44,44,0,0,0,5.35-.37c2-.25,4.3-.63,6.85-1.12l1.08,6.8q-3.5.92-6.27,1.37c-1.85.31-3.57.54-5.15.71A46.32,46.32,0,0,1,78.27,613.17Zm-.75-74.95a4.76,4.76,0,0,1-3.65-1.41,6.46,6.46,0,0,1,0-7.85,4.85,4.85,0,0,1,3.65-1.37A4.64,4.64,0,0,1,81.13,529a6.48,6.48,0,0,1,0,7.76A4.57,4.57,0,0,1,77.52,538.22Z"/><path class="cls-3" d="M132.46,586.36q-7.31,0-11.57-4.36c-2.86-2.91-4.28-6.87-4.28-11.91a35.1,35.1,0,0,1,.29-4.23,37.16,37.16,0,0,1,.83-4.49c.36-1.43.73-2.71,1.12-3.81H127q-.58,2.82-.92,5.72a51.57,51.57,0,0,0-.33,5.81,10.74,10.74,0,0,0,2.16,7,6.92,6.92,0,0,0,5.64,2.65h28.8V545.85h8.88v40.51Zm14.11,18A4.68,4.68,0,0,1,143,603a5.48,5.48,0,0,1-1.32-3.9,5.56,5.56,0,0,1,1.28-3.95,5.49,5.49,0,0,1,7.31,0,5.61,5.61,0,0,1,1.28,3.9,5.53,5.53,0,0,1-1.32,3.86A4.75,4.75,0,0,1,146.57,604.37Z"/><path class="cls-3" d="M185.67,606.28a20.08,20.08,0,0,1-5.32-.71,22.71,22.71,0,0,1-5.39-2.36l3.07-6.39a16.26,16.26,0,0,0,3.53,1.41,14.4,14.4,0,0,0,3.19.33,6.7,6.7,0,0,0,5.73-2.86,12.56,12.56,0,0,0,2.08-7.52V545.85h8.79V588.1a23.2,23.2,0,0,1-1.86,9.71,14.2,14.2,0,0,1-5.4,6.27A15.65,15.65,0,0,1,185.67,606.28Zm10.79-68.06a4.8,4.8,0,0,1-3.66-1.41,6.5,6.5,0,0,1,0-7.85,4.89,4.89,0,0,1,3.66-1.37,4.64,4.64,0,0,1,3.61,1.41,6.52,6.52,0,0,1,0,7.76A4.57,4.57,0,0,1,196.46,538.22Z"/><path class="cls-3" d="M244.93,523.28h9v63.08h-9Z"/><path class="cls-3" d="M286.34,606.28a18.32,18.32,0,0,1-10-2.66,17.07,17.07,0,0,1-6.43-7.59,28.11,28.11,0,0,1-2.24-11.66,58,58,0,0,1,.41-6.77,50.39,50.39,0,0,1,1.25-6.6,39.93,39.93,0,0,1,2-5.81h8.3a42.84,42.84,0,0,0-2.12,8.72,73.44,73.44,0,0,0-.7,10.46q0,6.72,2.86,10.5a9.49,9.49,0,0,0,8,3.77h3.49q7,0,10.21-3.32t3.23-9.88V523.28h8.88V585.2q0,10.45-5.35,15.77t-16.64,5.31Z"/><path class="cls-3" d="M408.69,586.36A17.16,17.16,0,0,1,401.8,585a21.47,21.47,0,0,1-6.39-4.53,14.76,14.76,0,0,1-5.23,4.32,16.58,16.58,0,0,1-7.47,1.58h-9.8q-.24,9.87-5.6,14.9t-16.31,5h-5.15a18.32,18.32,0,0,1-10-2.66,17.07,17.07,0,0,1-6.43-7.59,28.11,28.11,0,0,1-2.24-11.66,55.36,55.36,0,0,1,.95-10.09,42.31,42.31,0,0,1,2.7-9.09h8.3a42.21,42.21,0,0,0-2.11,8.72,72,72,0,0,0-.71,10.46q0,6.72,2.86,10.5a9.49,9.49,0,0,0,8,3.77h3.49q7,0,10.21-3.32t3.23-9.88V552.33H373v26.39h8.3a7.59,7.59,0,0,0,6.18-2.53,10.76,10.76,0,0,0,2.12-7.1V552.33h8.79v19.38a5.92,5.92,0,0,1-.08,1,12.69,12.69,0,0,0,4.4,4.68,12,12,0,0,0,5.89,1.29h5.07V545.85h8.79v40.51Z"/><path class="cls-3" d="M451.1,613.17a21.14,21.14,0,0,1-9.55-2,14.37,14.37,0,0,1-6.14-5.68,17,17,0,0,1-2.16-8.76,16.8,16.8,0,0,1,1.08-6.06,17.82,17.82,0,0,1,3.24-5.31,25.33,25.33,0,0,1,5.48-4.9,47.53,47.53,0,0,1,8.5-4.44,124.87,124.87,0,0,1,12.5-4.27c-.28-.94-.56-2-.83-3.2s-.56-2.53-.83-4q-1.17-6.06-4.07-9a10.46,10.46,0,0,0-7.72-2.9,24.1,24.1,0,0,0-6.72,1.12,39,39,0,0,0-7.14,2.86l-3.4-6.8a31.44,31.44,0,0,1,8.46-3.49,37.86,37.86,0,0,1,9.71-1.33q8,0,12.7,4.24T470.27,562a48.74,48.74,0,0,0,1.87,7.84,20.59,20.59,0,0,0,2.7,5.48,15.9,15.9,0,0,0,3.81,3.78l-5.06,6.55a39.53,39.53,0,0,1-3.78-3.44,19,19,0,0,1-2.78-3.78c-2.82.78-5.36,1.55-7.63,2.33s-4.26,1.53-6,2.28a24,24,0,0,0-4.31,2.36,16.35,16.35,0,0,0-5.11,4.78,10.51,10.51,0,0,0-1.7,5.85q0,4.65,2.95,7t8.67,2.41a44,44,0,0,0,5.35-.37c2-.25,4.31-.63,6.85-1.12l1.08,6.8q-3.48.92-6.27,1.37c-1.85.31-3.57.54-5.14.71A46.51,46.51,0,0,1,451.1,613.17Zm4.56-13.2a4.78,4.78,0,0,1-3.65-1.41,6.46,6.46,0,0,1,0-7.85,4.86,4.86,0,0,1,3.65-1.36,4.61,4.61,0,0,1,3.61,1.41,6.48,6.48,0,0,1,0,7.76A4.6,4.6,0,0,1,455.66,600Z"/><path class="cls-3" d="M509.86,606.28a22.59,22.59,0,0,1-8.42-1.5,17.6,17.6,0,0,1-6.44-4.31,19.67,19.67,0,0,1-4.1-6.68,24.23,24.23,0,0,1-1.46-8.59,51.56,51.56,0,0,1,1-10,49.48,49.48,0,0,1,2.7-9.17h8.3a49.9,49.9,0,0,0-2.12,9,68,68,0,0,0-.71,9.87q0,6.55,3.49,10.17t10,3.61H528q8.13,0,11.7-2.86t3.57-8.92v-.5H536a22.23,22.23,0,0,1-10.42-2.28,15.38,15.38,0,0,1-6.64-6.69,22.62,22.62,0,0,1-2.28-10.54,21.4,21.4,0,0,1,2.9-11.37,18.54,18.54,0,0,1,8.14-7.18,28.5,28.5,0,0,1,12.2-2.45h12.2v40.09q0,10.21-5.4,15.27t-16.43,5.07Zm33.37-27.56V553.49h-3.07a17.4,17.4,0,0,0-7.76,1.58,11.08,11.08,0,0,0-4.9,4.6,14.74,14.74,0,0,0-1.7,7.35,15.07,15.07,0,0,0,1.28,6.6,8.21,8.21,0,0,0,3.86,3.86,14.43,14.43,0,0,0,6.31,1.24Zm-12.29-40.5a5,5,0,0,1-3.57-1.33,6.39,6.39,0,0,1,0-8,5.1,5.1,0,0,1,3.57-1.29,4.74,4.74,0,0,1,3.57,1.37,6.46,6.46,0,0,1,0,7.85A4.65,4.65,0,0,1,530.94,538.22Zm14.28,0a4.76,4.76,0,0,1-3.65-1.41,6.46,6.46,0,0,1,0-7.85,4.85,4.85,0,0,1,3.65-1.37,4.64,4.64,0,0,1,3.61,1.41,6.48,6.48,0,0,1,0,7.76A4.57,4.57,0,0,1,545.22,538.22Z"/></g></g></svg>